<?xml version="1.0" encoding="utf-8"?>
<!-- Generator: Adobe Illustrator 22.0.1, SVG Export Plug-In . SVG Version: 6.00 Build 0)  -->
<svg version="1.1" id="레이어_1" xmlns="http://www.w3.org/2000/svg" xmlns:xlink="http://www.w3.org/1999/xlink" x="0px"
	 y="0px" viewBox="0 0 360 510" style="enable-background:new 0 0 360 510;" xml:space="preserve">
<style type="text/css">
	.st0{fill:#E44D26;}
	.st1{fill:#F16529;}
	.st2{fill:#EBEBEB;}
	.st3{fill:#FFFFFF;}
</style>
<polygon class="st0" points="32.8,468.2 0,100 360.7,100 327.8,468.1 180.1,509.1 "/>
<polygon class="st1" points="180.3,477.8 299.7,444.7 327.8,130.1 180.3,130.1 "/>
<polygon class="st2" points="180.3,266.7 120.6,266.7 116.5,220.4 180.3,220.4 180.3,175.3 180.2,175.3 67.1,175.3 68.2,187.4 
	79.3,311.8 180.3,311.8 "/>
<polygon class="st2" points="180.3,383.9 180.1,384 129.8,370.4 126.6,334.4 102.2,334.4 81.3,334.4 87.6,405.3 180.1,431 
	180.3,430.9 "/>
<path d="M33.6,0h22.9v22.7h21V0h22.9v68.6H77.5v-23h-21v23H33.6L33.6,0L33.6,0z"/>
<path d="M130.6,22.8h-20.2V0h63.4v22.8h-20.2v45.9h-22.9L130.6,22.8L130.6,22.8z"/>
<path d="M183.8,0h23.9l14.7,24.1L237.2,0h23.9v68.6h-22.9v-34L222.5,59h-0.4l-15.8-24.4v34h-22.5V0z"/>
<path d="M272.5,0h23v46h32.3v22.7h-55.2V0z"/>
<polygon class="st3" points="180.2,266.7 180.2,311.8 235.8,311.8 230.5,370.4 180.2,384 180.2,431 272.7,405.3 273.4,397.7 
	284,278.8 285.1,266.7 273,266.7 "/>
<polygon class="st3" points="180.2,175.3 180.2,203.3 180.2,220.3 180.2,220.4 289.1,220.4 289.1,220.4 289.2,220.4 290.1,210.3 
	292.2,187.4 293.3,175.3 "/>
</svg>
