<?xml version="1.0" encoding="utf-8"?>
<!-- Generator: Adobe Illustrator 22.0.1, SVG Export Plug-In . SVG Version: 6.00 Build 0)  -->
<svg version="1.1" id="레이어_1" xmlns="http://www.w3.org/2000/svg" xmlns:xlink="http://www.w3.org/1999/xlink" x="0px"
	 y="0px" viewBox="0 0 200 200" style="enable-background:new 0 0 200 200;" xml:space="preserve">
<g>
	<path d="M100,1.3C45.5,1.3,1.3,45.5,1.3,100c0,54.5,44.2,98.8,98.8,98.8s98.8-44.2,98.8-98.8C198.8,45.5,154.5,1.3,100,1.3z
		 M104,140.9l-8.3,10c-5,5.9-11.8,9.8-19.4,11.2c-1,0.2-2,0.3-3,0.4c-8.4,0.7-16.8-2-23.2-7.5c-13.1-11.4-14.7-31.1-3.6-44.5
		l19.7-23.6c1-1.2,2.2-2.4,3.4-3.4c13.2-11.6,33.3-10.4,44.9,2.8c2.6,2.9,2.7,7.3,0.1,10.3l-0.1,0.1c-1.5,1.8-3.6,2.8-5.9,2.8
		c-2.3,0-4.5-1-6.1-2.7c-0.5-0.6-1.1-1.2-1.7-1.7c-5.3-4.4-12.7-4.9-18.6-1.3c-1.4,0.8-2.6,1.9-3.6,3.1L78.5,97l-19.8,23.7
		c-0.1,0.1-0.2,0.2-0.3,0.3c-5.4,6.9-4.2,16.9,2.7,22.3c6.9,5.2,16.8,4,22.3-2.7l8.4-10h0c2.8-3.4,7.9-3.8,11.2-1
		S106.8,137.5,104,140.9z M153.3,90.1l-19.4,23.2c-3.7,4.5-8.7,7.9-14.2,9.7c-1.6,0.5-3.2,0.9-4.8,1.2c-10.6,1.8-21.4-1.8-28.7-9.7
		c-3-3.2-2.8-8.2,0.4-11.2c3.2-3,8.3-2.8,11.3,0.4c5.2,5.6,13.5,6.7,20,2.7c1.4-0.8,2.6-1.9,3.6-3.1l0.2-0.2l19.4-23.3
		c5.6-6.6,5-16.5-1.3-22.4c-0.1-0.1-0.2-0.2-0.3-0.3c-6.7-5.6-16.8-4.8-22.4,2l-9.3,11.2c-2.8,3.4-7.9,3.8-11.2,1
		c-3.4-2.8-3.8-7.9-1-11.2l9.3-11.2c11.2-13.3,30.9-15.2,44.4-4.4l0,0c6.6,5.3,10.7,13.1,11.5,21.5
		C161.5,74.7,158.8,83.3,153.3,90.1z"/>
</g>
</svg>
