<?xml version="1.0" encoding="utf-8"?>
<!-- Generator: Adobe Illustrator 22.0.1, SVG Export Plug-In . SVG Version: 6.00 Build 0)  -->
<svg version="1.1" id="레이어_1" xmlns="http://www.w3.org/2000/svg" xmlns:xlink="http://www.w3.org/1999/xlink" x="0px"
	 y="0px" viewBox="0 0 100 100" style="enable-background:new 0 0 100 100;" xml:space="preserve">
<path d="M74.1,34.1L50.9,48.7c-0.5,0.3-1.1,0.3-1.6,0L26.1,34.1c-1.2-0.7-2.8-0.4-3.5,0.8c-0.7,1.2-0.4,2.8,0.8,3.5l25.4,15.9l0,0
	c0.8,0.5,1.9,0.5,2.7,0l25.4-15.9c1.1-0.8,1.4-2.4,0.5-3.6C76.6,33.9,75.2,33.5,74.1,34.1L74.1,34.1z M99.4,46
	C97.1,18.7,73.2-1.6,46,0.7S-1.6,26.8,0.7,54.1c2,24.2,21.1,43.3,45.3,45.3c27.4,2.1,51.3-18.4,53.4-45.8C99.5,51,99.5,48.5,99.4,46
	z M83,64c0,4.9-4,8.8-8.8,8.8H25.9c-4.9,0-8.8-4-8.8-8.8V35.9c0-4.9,4-8.8,8.8-8.8h48.3c4.9,0,8.9,4,8.8,8.9c0,0,0,0,0,0V64z"/>
</svg>
