<?xml version="1.0" encoding="utf-8"?>
<!-- Generator: Adobe Illustrator 22.0.1, SVG Export Plug-In . SVG Version: 6.00 Build 0)  -->
<svg version="1.1" id="레이어_1" xmlns="http://www.w3.org/2000/svg" xmlns:xlink="http://www.w3.org/1999/xlink" x="0px"
	 y="0px" viewBox="0 0 1280 380" style="enable-background:new 0 0 1280 380;" xml:space="preserve">
<style type="text/css">
	.st0{fill:url(#SVGID_1_);}
</style>
<linearGradient id="SVGID_1_" gradientUnits="userSpaceOnUse" x1="231.6557" y1="-203.0133" x2="1021.5651" y2="586.8961">
	<stop  offset="0" style="stop-color:#FF5F6D"/>
	<stop  offset="0.167" style="stop-color:#FF676D"/>
	<stop  offset="0.4307" style="stop-color:#FF7E6E"/>
	<stop  offset="0.7562" style="stop-color:#FFA370"/>
	<stop  offset="1" style="stop-color:#FFC371"/>
</linearGradient>
<path class="st0" d="M865,253.4c-0.4-0.5-0.6-1.1-0.6-1.8c-0.1-0.9,0.2-1.8,0.9-2.5c0.9-1,2.4-1.5,4.5-1.5c0.8,0,1.5,0.3,2.1,0.9
	c0.6,0.6,0.9,1.3,0.9,2.1c0,0.8-0.3,1.6-0.9,2.1c-0.1,0.1-0.1,0.1-0.2,0.2c-0.3,1.5-1.5,2.4-3,2.4c-0.3,0-0.6-0.1-0.8-0.2
	c-0.2,0-0.5-0.1-0.8-0.2c-0.4-0.1-0.8-0.3-1.1-0.6C865.6,254.2,865.3,253.8,865,253.4z M888.8,254c0.3,0.2,0.7,0.4,1.1,0.6
	c0.3,0.1,0.6,0.2,0.8,0.2c0.3,0.1,0.5,0.2,0.8,0.2c1.5,0,2.7-0.9,3-2.4c0.1-0.1,0.1-0.1,0.2-0.2c0.6-0.6,0.9-1.3,0.9-2.1
	s-0.3-1.6-0.9-2.1c-0.6-0.6-1.3-0.9-2.1-0.9c-2.1,0-3.6,0.5-4.5,1.5c-0.7,0.7-1,1.6-0.9,2.5c0,0.6,0.2,1.3,0.6,1.8
	C888,253.3,888.4,253.7,888.8,254z M1312.9,294l-3.4,4.9c-36.4-25.4-66.1-30.6-88.3-15.5c-15.8,10.7-23.4,29-30.8,46.8
	c-7.9,19-15.3,36.9-32.1,43c-5.1,1.9-10.2,2.7-15.1,2.7c-31.3,0-59.4-33.7-80.6-59.2c-14-16.9-21.5-30.3-27.5-41
	c-7.3-13.1-12.1-21.7-23.9-28.2c-23.5-12.9-56.7-6.7-98.8,18.2c-0.3,0.7-0.9,1.2-1.5,1.5c-1.4,0.5-4.7,2.2-13.3,7.8
	c-5,3.3-8.8,5.7-11.4,7.1c-2.8,1.6-5.1,2.3-6.8,2.3c-1.2,0-2.3-0.4-3.1-1.1c-0.1,0-0.1-0.1-0.2-0.2c-0.7-0.8-1-1.7-1.1-2.8
	c0-0.9,0.2-2,0.7-3.6c0.4-1.3,1.2-3,2.4-5.1c-7.4,3.8-15.7,8.6-24.8,14.4c-4.9,8.4-9.3,15.6-13.1,21.4c-6.6,9.9-13,17.5-19,22.7
	c-5.1,4.4-9.4,6.6-12.9,6.6c-0.4,0-0.7,0-1.1-0.1c-2.4-0.3-4.1-1.8-4.9-4c-1-3-0.3-6.8,2.3-11.5c2.3-4.4,5.9-9,10.6-13.8
	c7.2-7.3,18.5-15.9,33.5-25.5c2-3.5,4.3-7.6,6.8-12.3c-5.3,2.6-10.7,5.6-16.1,8.8c-2.6,1.6-4.2,2.5-5.3,3c-0.7,0.3-1.5,0.5-2.1,0.5
	c-0.7,0-1.3-0.2-1.9-0.5c-0.8-0.5-2.1-1.6-2-4.1c0-1.8,0.8-4.8,2.4-9.5c0.4-1.2,0.7-2.1,0.9-2.8c-1.6,0.9-3.3,1.9-5.3,3.2
	c-3,1.9-5.4,3.6-7.4,5c-1.9,1.4-4.6,3.4-7.9,5.9l-1.5,1.2c-2.5,1.9-4.2,2.7-5.5,2.7c-1,0-1.9-0.4-2.6-1.1c0,0-0.1-0.1-0.1-0.1
	c-0.5-0.6-0.8-1.2-0.9-1.9c-0.1-0.7,0-1.5,1-3.6c0.5-1,1.2-2.3,2.2-3.8c-2.4,1.3-5,2.8-7.9,4.5c-3.4,2-5.5,3.2-6.4,3.6
	c-2.4,1.1-4.3,1.7-5.9,1.7c-1.8,0-2.8-0.7-3.4-1.3c-0.3-0.3-0.6-0.8-0.8-1.3c-0.1-0.4-0.3-0.7-0.3-1.2c-0.1-0.5-0.1-1,0-1.7
	c0.1-0.4,0.2-0.8,0.3-1.2c0.1-0.3,0.2-0.8,0.4-1.3c0.2-0.5,0.4-1,0.6-1.5c0.1-0.3,0.3-0.7,0.5-1.1c-0.6,0.5-1.3,1-2,1.6
	c-11.4,9.5-15.7,10.6-17.9,10.6c-0.7,0-1.3-0.1-1.8-0.3c-1.5-0.6-2.5-1.9-2.8-3.6c-0.3-2.4,0.9-5.4,3.5-9.3c-7.7,3.5-15,7.5-21.8,12
	c-3.9,6.8-8.1,13.8-12.6,20.6c-6.5,10-12.4,17.9-17.5,23.5c-5.6,6.1-9.7,9-13,9c-0.4,0-0.8,0-1.1-0.1c-0.1,0-0.1,0-0.2,0
	c-1.2-0.4-3.3-1.4-3.5-4.8c-0.2-3.3,1.5-7.8,5-13.8c3.3-5.8,8-11.8,14-18.1c7.1-7.5,15.3-14.3,24.4-20.5c1.2-2.2,2.3-4.1,3.2-5.8
	c-1.2,1-2.2,1.8-3,2.4c-1,0.8-2.4,1.8-4,2.9c-1.7,1.2-3.3,2.2-4.9,2.9c-1.3,0.7-2.5,1-3.6,1c-1.7,0-3.2-0.9-4.1-2.4
	c-1.2-2.1-1.1-4.9,0.5-8.3c-6.5,2.8-12.6,5.7-18.3,8.9c-4.1,8-8.7,16.4-13.8,25c-2.6,4.4-5.2,8.4-7.8,11.9c-2.6,3.5-5,6.5-7.1,8.8
	c-2.2,2.3-4.3,4.3-6.3,5.9c-2.1,1.6-3.9,2.8-5.6,3.5c-1.8,0.7-3.4,1.1-4.8,1.1c-0.6,0-1.2-0.1-1.8-0.2c-1.7-0.4-2.9-1.3-3.9-2.7
	c-0.9-1.3-1.4-2.8-1.5-4.7c-0.2-3.7,1.2-8.2,4.2-13.8c2.9-5.4,7.5-11.2,13.8-17.2c8.1-7.9,18.2-15.3,30.1-22c1.2-2.4,2.1-4.4,2.9-6
	c-4.2,2.9-7.5,4.8-10,5.7c-2.4,0.8-4.4,1.2-6,1.2c-3.1,0-4.5-1.5-5.1-2.7c-0.3-0.6-0.5-1.3-0.5-2c-3.8,2-7.6,4.2-11.5,6.5
	c-2.6,1.6-4.2,2.5-5.3,3c-0.7,0.3-1.5,0.5-2.1,0.5c-0.7,0-1.3-0.2-1.9-0.5c-0.8-0.5-2.1-1.6-2-4.1c0-1.8,0.8-4.8,2.4-9.5
	c0.4-1.2,0.7-2.1,0.9-2.8c-1.6,0.9-3.3,1.9-5.3,3.2c-3,1.9-5.4,3.6-7.4,5c-1.9,1.4-4.5,3.3-7.9,5.9l-1.5,1.2
	c-2.5,1.9-4.2,2.7-5.5,2.7c-1,0-1.9-0.4-2.6-1.1c0,0-0.1-0.1-0.1-0.1c-0.5-0.6-0.8-1.2-0.9-1.9c-0.1-0.7,0-1.5,1-3.6
	c0.6-1.2,1.5-2.7,2.7-4.6c-3.9,2-8.4,4.5-13.5,7.4c-3.4,1.9-5.7,3.2-7.1,3.9c-1.8,0.9-3.1,1.3-4.2,1.3c-1,0-1.9-0.4-2.6-1.1
	c-0.8-0.8-1.6-2.4-0.4-5.3c0.3-0.6,0.7-1.4,1.2-2.5c-0.3,0.3-0.7,0.5-1.1,0.8l-0.4,0.4c0,0-0.1,0.1-0.1,0.1c-4.9,3.6-8.4,5.3-11,5.3
	c-1.9,0-3.1-0.9-3.7-1.6c-1.6-1.9-1.3-4.6,0.7-8c0.9-1.5,2-3.1,3.5-4.8c-0.7,0-1.4,0.1-2.2,0.1c-0.5,0-0.9,0-1.4,0
	c-2.1,0-3.9-0.1-5.2-0.2c-1.3-0.1-3.2-0.3-5.7-0.5c-0.1,0-0.2,0-0.2,0c-2.3,3.7-4.6,7.1-6.7,10.2c-3.8,5.6-7.5,10.6-11.1,14.9
	c-3.6,4.3-6.8,7.7-9.6,10.2c-2.8,2.5-5.6,4.6-8.2,6.2c-2.7,1.6-5,2.7-6.9,3.3c-1.9,0.6-3.8,0.8-5.5,0.8c-0.9,0-1.7-0.1-2.5-0.2
	c-2.7-0.5-5.1-1.7-7-3.7c-1.9-1.9-3.2-4.4-4-7.4c-0.4-1.7-0.7-3.5-0.7-5.4c0-1.9,0.2-3.9,0.6-6c0.4-2.1,1.1-4.1,2-6.1
	c0.9-2,2.1-4,3.6-5.9c1.5-2,3.3-3.7,5.3-5.3c2.4-1.9,4.9-3.6,7.5-5c2.6-1.5,5-2.7,7.3-3.6c2.3-0.9,4.8-1.7,7.4-2.2
	c2.6-0.6,4.9-1,7-1.2c2.1-0.2,4.4-0.4,7-0.4c0.4,0,0.8,0,1.2,0c2,0,3.8,0,5.3,0.1c1.4,0.1,3.1,0.2,5,0.4
	c6.8-10.6,12.8-20.6,17.9-29.6c3.5-6.1,5.6-10.2,6.8-12.9c-0.2,0.1-0.5,0.2-0.7,0.3c-2.3,1.1-4.4,1.8-6.3,2.2
	c-11.9,3.9-14.7,5.6-15.4,6.2c-0.1,0.6-0.5,1.2-1,1.6c-0.5,0.4-1.2,0.7-1.8,0.7c-0.2,0-0.3,0-0.5,0c-0.7-0.1-1.4-0.5-1.9-1
	c-0.6-0.6-0.8-1.5-0.7-2.3c0.2-1.3,0.8-2.4,2-3.5c1-0.9,2.5-1.7,4.5-2.6c1.7-0.8,3.5-1.5,5.2-2.1c-1.4-2.4-1.5-5.3-0.2-8.7
	c0.4-1,0.8-2,1.3-3c-2.6,0.6-4.6,1-6.4,1c-0.4,0-0.8,0-1.3,0c-1.3,0-2.7-0.1-4.1-0.4c-1.8-0.3-3.1-0.6-4-0.9c-0.8-0.3-1.8-0.7-3-1.2
	c-1.3-0.5-1.7-0.7-1.8-0.7c0,0,0,0,0,0c-1.9,1.3-4.6,3.6-7.9,6.9c-1.1,1.1-2,2-2.5,2.5c-4.9,4.7-8.6,8-11.5,10
	c-3.1,2.2-5.4,3.2-7.2,3.2c-1.1,0-2.2-0.4-3-1.1c-2.7-2.5-1.1-6.8-0.6-8.3c1.1-3.1,2.7-6.4,4.7-9.7c0,0,0.1-0.1,0.1-0.1
	c-4.1,2.1-8.5,4.6-13,7.3c-2.4,1.5-4.2,2.5-5.3,3.1c-4.4,2.4-8,3.6-11.2,3.6c-3.7,0-5.6-1.6-6.6-3c-1.6-2.4-1.8-5.5-0.5-9.1
	c0.2-0.6,0.5-1.2,0.7-1.8c-9.3,3.3-19.8,5.7-31.2,7.2c-6.6,5.6-14.3,10.3-23.1,14c-8.9,3.8-17.3,6.2-24.9,7
	c-1.5,0.2-2.9,0.3-4.3,0.3c-6.4,0-10.8-1.7-13.2-5c-1.8-2.4-2.1-5.2-0.7-8.1c1-2.4,3.2-4.6,6.4-6.5c3.1-1.8,7.2-3,12.1-3.6
	c0.3,0,0.7-0.1,1.1-0.1c1.2-2.2,2.8-5.4,5-9.6c9.2-17.4,14.8-27.5,17.3-31c0.8-1.1,1.8-1.3,2.4-1.3c0.6,0,1.2,0.2,1.8,0.6
	c1.4,1,1.8,2.7,0.8,4.1c-2.3,3.3-8,13.5-16.9,30.4c-1.3,2.4-2.4,4.4-3.2,6.1c3.3-0.3,7.4-0.6,12.3-1c10.8-0.8,19-1.5,24.4-2.2
	c7-6.3,11.4-12.9,13.1-19.7c0.4-1.7,0.6-3.4,0.6-5.2c0-1.8-0.3-3.7-0.7-5.7c-0.4-1.9-1.2-3.9-2.2-5.8c-1.1-2-2.4-3.9-4.1-5.8
	c-1.6-1.9-3.7-3.7-6.3-5.6c-2.5-1.8-5.5-3.6-8.7-5.1c-5.1-2.4-10-3.9-14.6-4.5c1.3,6.2,1,12.4-1.3,17.3c-1.1,2.3-4.3,9.2-10.7,9.6
	c-5.6,0.3-9.5-4.9-10.6-6.5c-0.5-0.7-0.6-1.6-0.4-2.3c-1.7-7.6-0.9-13.6,2.4-18c2.7-3.6,6.9-5.6,12.6-6.2
	c-2.9-7.5-7.9-14.7-13.8-18.6c-11-7.3-25,0.6-46.4,12.5c-9.7,5.4-20.7,11.6-33.3,17.2c-41.7,18.8-79.9,28.3-112.3,28.3
	c-21.3,0-40.1-4.1-55.6-12.4c-31.4-16.8-49.7-50.6-65.8-80.4c-6.6-12.2-11.8-24.1-16.3-34.5c-10.7-24.4-18.4-42.1-35.2-46
	c-9.9-2.3-18.6,1.1-24.3,3.4c-46.9,18.6-56.1,93-57,101.5c-0.2,1.6-1.7,2.8-3.3,2.7c-1.6-0.2-2.8-1.7-2.7-3.3
	c1.5-14.3,11.6-86.9,60.8-106.4C33.9,6.2,44,2.2,55.7,5c19.7,4.6,28.4,24.4,39.3,49.5c4.5,10.3,9.6,22,16.1,34
	c16.5,30.5,33.5,62,63.3,78c37.5,20,95.3,14.3,162.7-16.1c12.4-5.6,23.2-11.7,32.8-17c22.4-12.5,38.6-21.6,52.6-12.2
	c7.1,4.7,13.5,13.9,16.9,23.5c6.1,0.4,12.5,2.2,19,5.2c8.4,4,15,9.3,19.6,15.7c5.4,7.6,7.1,15.7,5,24.2c-1.4,5.8-4.5,11.5-9,16.8
	c11.2-2,21.3-5,30.2-9c0.3-0.2,0.6-0.4,0.9-0.6c0.4-0.4,0.9-0.9,1.4-1.3c2.1-1.8,4.1-3.3,5.8-4.3c1.9-1.1,3.4-1.8,4.7-2
	c0.8-0.1,1.5-0.2,2.1-0.2c0.4,0,0.7,0,1,0.1c0.9,0.1,1.7,0.5,2.3,0.9c1,0.7,3,2.8,1.3,6.6c-1.1,2.4-3.2,4.3-6.4,5.5
	c-1.8,0.7-3.9,1.1-6.2,1.1c-1.1,0-2.3-0.1-3.5-0.3c-2.2,2.4-3.8,4.7-4.6,6.9c-0.7,1.9-0.9,3.4-0.4,4c0.2,0.2,0.5,0.4,0.9,0.5
	c0.2,0,0.4,0.1,0.6,0.1c0.7,0,1.6-0.1,2.7-0.4c1.7-0.4,3.6-1.3,5.7-2.5c1-0.5,2.7-1.5,5-2.9c8.1-4.9,15.7-8.9,22.5-11.8
	c0.4-0.2,0.8-0.3,1.3-0.3c0.1,0,0.3,0,0.4,0c0.1,0,0.3,0,0.4,0c0.5,0,1.2,0.1,1.9,0.7c0.9,0.7,1.1,1.5,1.1,2.1
	c0,0.5-0.1,1.3-0.8,2.2c-2.4,3-4.5,6.1-6.3,9.2c-1.8,3.2-3,5.8-3.7,7.7c0,0.1-0.1,0.2-0.1,0.3c0.6-0.4,1.4-1,2.5-1.7
	c2.6-1.9,6.1-4.8,10.1-8.8l2.4-2.4c3.8-3.8,6.8-6.4,9.2-7.9c0.8-0.5,1.8-0.8,2.8-0.8c0.9,0,1.7,0.1,2.3,0.4c0.5,0.2,1.1,0.4,2,0.8
	c1,0.4,1.9,0.8,2.5,1c0.4,0.1,1.3,0.4,3.1,0.7c1,0.2,2,0.3,3,0.3c0.4,0,0.7,0,1.1,0c1.4-0.1,3.2-0.4,5.5-0.9
	c2.2-0.5,4.6-1.3,7.2-2.4c0.2-0.1,0.4-0.2,0.7-0.2c0.4-0.4,0.8-0.8,1.3-1.2c2.1-1.8,4.1-3.3,5.8-4.3c1.9-1.1,3.4-1.8,4.7-2
	c0.8-0.1,1.5-0.2,2.1-0.2c0.4,0,0.7,0,1,0.1c0.9,0.1,1.7,0.5,2.3,0.9c1,0.7,3,2.8,1.3,6.6c-1.1,2.4-3.2,4.3-6.4,5.5
	c-1.8,0.7-3.9,1.1-6.2,1.1c-1.1,0-2.3-0.1-3.5-0.3c-2.2,2.4-3.8,4.7-4.6,6.9c-0.7,1.9-0.9,3.4-0.4,4c0.2,0.2,0.5,0.4,0.9,0.5
	c0.2,0,0.4,0,0.6,0c0.4,0,0.9,0,1.4-0.1c2-0.7,3.7-1.3,5.1-1.8c0.7-0.3,1.3-0.6,1.9-1c1-0.6,2.7-1.5,5-2.9c7.4-4.5,14.3-8.1,20.7-11
	c4.7-8.9,10.1-17.3,16-24.8c2.1-2.8,4.3-5.6,6.5-8.1c2.2-2.5,4.5-5.2,7-7.9c2.6-2.8,5.1-5,7.3-6.5c2.1-1.4,3.9-2.1,5.4-2.1
	c0.4,0,0.8,0.1,1.2,0.2c1,0.3,2.8,1.2,3.2,3.8c0.2,1.7-0.2,4-1.5,7c-1.1,2.7-2.9,5.9-5.3,9.6c-2.4,3.6-5.3,7.3-8.5,11.1
	c-3.3,3.8-7.3,7.7-12.1,11.6c-4.2,3.5-8.8,6.8-13.5,9.7c-0.3,0.5-0.7,0.9-1.3,1.2c-0.8,1.7-1.6,3.2-2.3,4.6
	c-2.5,5.3-3.1,7.7-3.2,8.7c0.9-0.2,2.6-0.8,6-2.6c1.6-0.9,4.4-2.6,8.4-5.2c6.8-4.4,12.4-7.7,16.7-9.8c0.1-0.4,0.3-0.8,0.6-1.2
	c0.8-1.2,2.2-2,4.1-2.3c0.8-0.1,1.5-0.2,2.2-0.2c0.8,0,1.6,0.1,2.3,0.3c1.2,0.3,2.3,0.7,3.2,1.3c1,0.6,1.8,1.4,2.5,2.3
	c0.6,0.9,1.1,1.9,1.3,3c0,0,0,0.1,0,0.1c0.2,0,0.5,0,0.7,0c0.8,0,1.5,0.1,2.3,0.1c6.2,0,12.2-1.2,17.6-3.7c0.2-0.2,0.4-0.3,0.5-0.5
	c0.7-0.6,1.4-0.7,1.9-0.7c0.4,0,1,0.1,1.6,0.5c0.5,0.2,1,0.7,1.4,1.4c0.5,1,0.4,1.8,0.2,2.4c-0.2,0.5-0.6,1.2-1.6,1.7
	c-0.1,0-0.2,0.1-0.3,0.1c-0.7,0.9-1.7,2.3-2.9,4.2c1.6-1.9,3.3-3.6,5.1-5.2c2.6-2.4,5.5-4.4,8.5-5.8c2.3-1.1,4.4-1.7,6.3-1.7
	c0.9,0,1.7,0.1,2.5,0.3c2.7,0.8,4.4,2.7,4.7,5.5c0.1,1.3,0,2.5-0.4,3.9c8.1-3.3,14.9-5.6,20.3-6.9c0.2-0.1,0.4-0.1,0.6-0.1
	c0.3-0.3,0.7-0.7,1.1-1c2.1-1.8,4.1-3.3,5.8-4.3c1.9-1.1,3.4-1.8,4.7-2c0.8-0.1,1.5-0.2,2.1-0.2c0.4,0,0.7,0,1,0.1
	c0.9,0.1,1.7,0.5,2.3,0.9c1,0.7,3,2.8,1.3,6.6c-1.1,2.4-3.2,4.3-6.4,5.5c-1.8,0.7-3.9,1.1-6.2,1.1c-1.1,0-2.3-0.1-3.5-0.3
	c-2.2,2.4-3.8,4.7-4.6,6.9c-0.7,1.9-0.9,3.4-0.4,4c0.2,0.2,0.5,0.4,0.9,0.5c0.2,0,0.4,0.1,0.6,0.1c0.7,0,1.6-0.1,2.7-0.4
	c1.7-0.4,3.6-1.3,5.7-2.5c1-0.6,2.7-1.5,5-2.9c6.8-4.1,13.2-7.5,19.1-10.3c-0.1-3.2,0.6-6,2.2-8.3c1.8-2.6,4.2-4.3,7.1-5
	c0.8-0.2,1.5-0.3,2.2-0.3c0.9,0,1.8,0.1,2.6,0.4c1.9,0.7,2.8,2,3.2,3c0.3,0.5,0.5,1.2,0.3,2.3c-0.1,0.5-0.2,1.1-0.4,1.7
	c-0.2,0.8-0.7,1.6-1.4,2.4c-0.6,0.7-1.4,1.5-2.3,2.3c-0.9,0.8-2.1,1.6-3.6,2.5c-0.8,0.5-1.7,1-2.7,1.5c-0.1,0.2-0.2,0.4-0.4,0.6
	c0,0.1,0.1,0.2,0.2,0.3c1.3,2.3,1.9,4.4,2,6.3c0.1,1.2-0.3,2.6-1.2,4.6c-0.8,1.6-2,4-3.7,7.1c-0.5,0.9-0.9,1.7-1.3,2.4
	c1.4-1.1,3.4-2.7,5.9-4.8c2.8-2.3,5-4.1,6.7-5.4c1.7-1.3,3.9-3,6.8-5.2c2.9-2.1,5.6-4,8.2-5.5c2.6-1.5,5.2-2.8,7.6-3.8l0.9-0.4
	c0.3-0.1,0.5-0.2,0.8-0.2c0.3,0,0.5,0,0.8,0.1c0.5,0.2,0.9,0.6,1.1,1.1l0.4,0.9c0.7,1.6,0,3.2-1.5,3.9c-1.9,0.8-3.8,1.8-5.9,2.9
	c-2.1,1.2-4,2.4-5.7,3.5c-1.7,1.1-3.7,2.6-5.9,4.3c-2.3,1.8-4.1,3.2-5.3,4.2c-1.3,1-3,2.4-5.2,4.2c-1.2,1-2.2,1.8-2.8,2.4
	c-0.7,0.5-1.4,1.2-2.4,1.9c-0.9,0.7-1.7,1.3-2.4,1.8c-4.2,3.2-6,3.6-7.1,3.6c-0.9,0-1.8-0.3-2.5-0.9c-0.8-0.7-1.2-1.6-1.3-2.7
	c0-0.8,0.2-1.8,0.7-3.1c0.4-1,0.9-2.2,1.5-3.3c0.6-1.2,1.4-2.7,2.5-4.8c3.7-6.6,4.1-8.3,4.2-8.7c-0.1-0.9-0.5-2.1-1.2-3.4
	c-0.1-0.2-0.2-0.3-0.3-0.5c-5.4,2.5-11.3,5.7-17.5,9.5c-2.4,1.5-4.2,2.5-5.3,3.1c-4.4,2.4-8,3.6-11.2,3.6c-3.7,0-5.6-1.6-6.6-3
	c-1.6-2.4-1.8-5.5-0.5-9.1c0.4-1.2,1-2.4,1.7-3.6c-6.1,2-13.5,5-21.9,8.8c-2.2,1.8-4.7,3.5-7.4,5c-5.2,2.9-7.1,3.3-8.2,3.3
	c-0.6,0-1.2-0.1-1.6-0.4c-0.1,0-0.1-0.1-0.2-0.1c-0.9-0.7-1.4-1.6-1.4-2.6c0-0.1,0-0.1,0-0.2c0.1-1.8,1.6-3.5,8.6-6.9
	c2.3-1.1,4.6-2.2,7-3.3c1.9-1.6,3.2-3.2,4.1-4.6c1-1.7,1.1-2.6,1-3.2c0-0.2,0-0.3-0.4-0.4c-0.2-0.1-0.4-0.1-0.6-0.1
	c-0.4,0-0.9,0.1-1.4,0.2c-1.1,0.2-2.4,0.8-3.9,1.6c-1.6,0.8-3.4,2.2-5.5,4.1c-2.2,2-4.4,4.4-6.7,7.2c-2.4,3-8.3,11.8-17.5,26.3
	c-3.6,5.7-6.1,9.6-7.4,11.6c-1.5,2.2-2.5,3.6-3,4.4c-0.3,0.4-1.4,1.7-2.9,1.7c-0.4,0-0.8-0.1-1.3-0.3c-0.1,0-0.1,0-0.2-0.1
	c-0.9-0.4-1.3-1-1.5-1.5c-0.3-0.7-0.3-1.5,0-2.5c0.2-0.5,0.4-0.9,0.6-1.4c0.2-0.4,0.5-1.1,1-2.1l2.6-5.3c1.2-2.5,3.3-6.4,6-11.7
	c2.7-5.3,5.4-10.2,7.8-14.7c2.2-4.1,4.5-8,6.7-11.7c-3.9,0.9-7.9,1.4-11.9,1.4c-0.8,0-1.6,0-2.4-0.1c-0.6,0-1.1-0.1-1.7-0.1
	c-0.8,1.5-1.9,2.9-3.3,4.3c-1.8,1.8-3.9,3.4-6.1,4.8c-3.8,2.3-6.8,3.4-9.4,3.4c-1.5,0-2.8-0.4-3.8-1.2c-1.4-1.1-2.7-3.3-1.3-7.3
	c0.2-0.4,0.3-0.9,0.5-1.4c-1.6,1-3.2,2-5,3.2c-4.2,2.7-7,4.4-8.7,5.4c-4.3,2.3-7.3,3.4-9.5,3.4c-1.5,0-2.7-0.5-3.7-1.4
	c-1.5-1.3-2-3.5-1.5-6.4c0.4-2,1.2-4.5,2.6-7.6c-3.9,2-8,4.3-12.3,6.9c0,0.4-0.1,0.9-0.3,1.6c-0.3,1.2-0.8,2.6-1.6,4.4
	c-0.7,1.7-2,4.2-3.7,7.4c-1.7,3.2-3.9,7.1-6.5,11.6c-4.1,7.2-8.8,14.8-13.8,22.7c1.1,0.1,1.9,0.2,2.6,0.2c1.2,0.1,2.8,0.2,4.8,0.2
	c0.5,0,1,0,1.4,0c1.3,0,2.4,0,3.3-0.1c1.2-0.1,2.5-0.4,3.9-0.7c1.4-0.3,2.6-0.8,3.7-1.4c0.4-0.2,0.8-0.3,1.2-0.4
	c0.4-0.2,0.7-0.3,1.1-0.5c1.2-0.5,2.4-0.7,3.5-0.7c0.9,0,1.8,0.2,2.6,0.4c2.1,0.8,4.6,2.7,5.2,7.5c0,0.4,0,0.9-0.1,1.2
	c0.7,1.4,0.3,3.2-1.1,5.5c-0.7,1.2-1.3,2.2-1.9,3.1c0.9-0.5,1.9-1.1,3.1-1.8c11.2-6.5,19.8-10.8,25.5-12.9c0.7-0.5,1.3-0.6,1.7-0.6
	c0.6,0,1.4,0.2,2.2,1c0.8,0.8,0.9,1.6,0.9,2.2c0,0.5-0.2,1.4-1,2.1c-1.3,1.2-2.8,2.9-4.4,4.8c1.1-0.8,2.1-1.5,2.9-2.1
	c2-1.5,4.6-3.2,7.6-5.2c3.1-2,5.9-3.6,8.1-4.6c1.1-0.5,2-0.7,2.9-0.7c1.1,0,2.1,0.4,2.8,1.1c0.6,0.6,1.1,1.4,1.3,2.3
	c0.1,0.8,0.1,1.7-0.1,2.8c-0.2,0.9-0.4,1.8-0.7,2.6c-0.3,0.8-0.6,1.9-1.1,3.4c-0.7,1.9-1.1,3.3-1.4,4.4c0.4-0.3,0.9-0.6,1.5-0.9
	c8.1-4.9,16.1-9.1,23.8-12.5c0.2-0.1,0.3-0.1,0.4-0.1c0.9-0.5,1.7-0.9,2.5-1.2c1.6-0.7,3.2-1.2,4.8-1.4c0.5-0.1,1-0.1,1.5-0.1
	c1.3,0,2.4,0.3,3.3,0.9c0.6,0.4,1.4,1.1,1.9,2.2c0.8-0.6,1.1-0.8,1.3-0.9c0,0,0.1,0,0.1-0.1c0.6-0.3,1.2-0.4,1.7-0.4
	c0.9,0,1.8,0.4,2.4,1.1c0.3,0.3,0.6,0.7,0.7,1.1c0.2,0.5,0.3,1.1,0.2,2c-0.1,0.8-0.3,1.6-0.6,2.7c-0.3,0.9-0.8,2.2-1.6,3.9
	c-0.1,0.2-0.2,0.4-0.3,0.7c7.1-3.5,14.7-6.8,22.7-9.8c0.1,0,0.1-0.1,0.2-0.1c0.7-0.5,1.3-0.6,1.8-0.6c0.1,0,0.3,0,0.4,0
	c0,0,0.1,0,0.1,0c1.3,0,2.3,0.8,2.7,2c0.3,0.8,0.2,1.6-0.1,2.3c-0.3,0.8-1,1.3-1.8,1.6l-0.5,0.2c-2.4,1.8-4.3,3.8-5.6,6.1
	c-0.7,1.2-1,2.1-1.2,2.7c1.3-0.6,2.5-1.4,3.9-2.3c1.5-1,2.7-1.9,3.6-2.6c0.9-0.7,2.3-1.8,4-3.3c2.7-2.2,4.7-3.9,6.2-4.9
	c1-0.7,1.9-1.1,2.8-1.1c0.8,0,1.6,0.3,2.2,0.9c0.4,0.3,0.7,0.7,0.9,1.2c0.2,0.5,0.3,1.1,0.1,2.1c-0.1,0.8-0.3,1.7-0.7,2.7
	c-0.4,1-1,2.3-1.9,4.2c0,0,0,0,0,0c7.7-4.4,15.9-8.3,24.5-11.5c0.3-0.1,0.7-0.2,1-0.2c0.2,0,0.5,0,0.7,0.1c0.3-0.1,0.6-0.2,0.9-0.2
	c0.5,0,1.5,0.2,2.4,1.3c0.7,0.9,0.7,1.7,0.6,2.3c-0.1,0.5-0.4,1.3-1.2,2c-2.9,2.2-5.5,4.9-7.6,8c-1,1.4-1.6,2.4-2,3.2
	c0.3-0.1,0.7-0.3,1.1-0.6c0.8-0.4,1.7-1,2.6-1.6c1-0.7,2.2-1.6,3.6-2.6c1.4-1.1,3-2.3,4.6-3.6c2.4-2,4.3-3.6,5.9-4.7
	c1.6-1.2,2.9-2,3.8-2.5c1-0.5,1.8-0.8,2.5-0.9c0.1,0,0.3,0,0.4,0c0.9,0,1.7,0.4,2.2,1c0.6,0.5,0.9,1.2,1.1,1.9
	c0.2,0.8,0,1.6-0.4,2.7c-0.3,0.7-0.6,1.4-0.9,1.9c-0.3,0.6-0.8,1.5-1.5,2.8c-1.2,2.2-1.9,3.7-2.3,4.7c0.3-0.1,0.6-0.3,1-0.5
	c0.5-0.2,2-1,6-3.4c9.4-5.6,16-9,20.2-10.7c0.8-0.7,1.5-0.8,2.1-0.8c0.6,0,1.4,0.2,2.2,1c0.7,0.8,1,1.7,0.8,2.6
	c0,0.3-0.1,0.6-0.2,0.9c-0.3,0.7-0.9,1.2-1.6,1.5c-1.1,1.1-2.3,2.5-3.5,4c1.1-0.8,2.1-1.5,2.9-2.1c2-1.4,4.5-3.2,7.6-5.2
	c3.1-2,5.9-3.6,8.1-4.6c1.1-0.5,2-0.7,2.9-0.7c1.1,0,2.1,0.4,2.8,1.1c0.6,0.6,1.1,1.4,1.3,2.3c0.1,0.8,0.1,1.7-0.1,2.8
	c-0.2,0.9-0.4,1.8-0.7,2.6c-0.3,0.8-0.6,1.9-1.1,3.4c-0.7,1.9-1.1,3.3-1.4,4.4c0.4-0.3,0.9-0.6,1.5-0.9c8.1-4.9,16.1-9.1,23.8-12.5
	c0.5-0.2,0.9-0.3,1.3-0.3c1.2,0,2.2,0.7,2.7,1.9c0,0.1,0.1,0.2,0.1,0.3c0.7,0.9,0.7,2.1,0.1,3.2c-1.8,3.4-3.5,6.5-5.1,9.4
	c9.4-5.6,17.7-10,24.7-13.2c0.8-1,1.7-1.1,2.2-1.1c0.6,0,1.2,0.2,1.8,0.6c0.9,0.6,1.3,1.4,1.3,2c0.1,0.5,0.1,1.4-0.6,2.3
	c-1.6,2.4-3.1,4.7-4.3,6.7c-1.1,1.9-2,3.4-2.5,4.4c-0.1,0.2-0.2,0.4-0.3,0.6c0.5-0.2,1-0.5,1.7-0.9c2.1-1.1,5.7-3.4,10.7-6.7
	c5.4-3.6,9.3-6,12-7.4l-0.1-0.2c45.5-27.7,81.8-34.5,107.9-20.2c13.3,7.3,18.7,17,26.3,30.5c5.9,10.5,13.2,23.7,26.9,40.1
	c23.5,28.2,55.7,66.9,89.1,54.7c14.3-5.2,21.2-21.9,28.6-39.6c7.4-17.7,15.7-37.8,33-49.5C1242.3,261.9,1274.3,267.1,1312.9,294z
	 M774.8,194.5c0.9-0.5,1.6-1.1,2.3-1.6c1.1-0.9,1.7-1.4,2.1-1.8c-0.1,0-0.3,0-0.4,0.1c-1.2,0.3-2.3,1-3.2,2.1
	C775.2,193.7,774.9,194.1,774.8,194.5z M747,196.5c0.4-0.2,0.8-0.4,1.1-0.6c-0.1,0-0.1,0.1-0.2,0.1
	C747.6,196.2,747.3,196.3,747,196.5z M648.5,213.6c0.2,0,0.4-0.1,0.7-0.2c1.5-0.4,3.2-1.2,5.1-2.3c1.7-1.1,3.3-2.3,4.7-3.6
	c0.5-0.5,0.9-0.9,1.3-1.4c-2.2-0.6-4-1.3-5.4-2.3c-3.3,3.6-5.4,6.7-6.3,9.3C648.5,213.4,648.5,213.5,648.5,213.6z M633.2,190.2
	c7.3-5.5,13.8-11.9,19.4-19.1c3.2-4.2,5.8-8,7.5-11.5c0.9-1.8,1.4-3.1,1.8-4c-0.9,0.7-2.1,1.6-3.5,2.9c-1.7,1.5-4,3.9-6.7,7
	c-2.8,3.2-5.9,6.9-9.1,11.2C639.3,180.9,636.2,185.4,633.2,190.2z M599.2,196.5c0.4-0.2,0.8-0.4,1.1-0.6c-0.1,0-0.1,0.1-0.2,0.1
	C599.8,196.2,599.5,196.3,599.2,196.5z M515.6,196.5c0.4-0.2,0.8-0.4,1.1-0.6c-0.1,0-0.1,0.1-0.2,0.1
	C516.2,196.2,515.9,196.3,515.6,196.5z M435,150.6c-4.6,0.3-7.8,1.6-9.6,4c-2.3,3.1-2.6,8-1,14.5c1.1,1.3,2.8,2.8,4.4,2.7
	c1.8-0.1,3.7-2.2,5.6-6.1C436.3,161.7,436.4,156.3,435,150.6z M454.9,215.2c-4.1,0.4-9,0.8-14.7,1.2c-6.7,0.5-12.1,0.9-16.1,1.3
	c-1.9,3.6-3.3,6.1-4.3,7.8c-0.5,0.9-1.5,1.5-2.5,1.5c-0.5,0-1-0.1-1.4-0.3c-0.1,0-0.1-0.1-0.2-0.1c-1.4-0.9-1.8-2.6-1-4.1
	c0,0,0-0.1,0.1-0.1c0.6-0.9,1.3-2.2,2.2-3.7c-2.5,0.5-4.7,1.2-6.4,2.2c-2.2,1.3-3.6,2.5-4.2,3.8c-0.5,1.1-0.3,1.7,0.1,2.2
	c0.6,0.8,2,1.5,3.9,1.9c1.3,0.3,2.8,0.4,4.4,0.4c1.1,0,2.3-0.1,3.6-0.2c5.5-0.6,11.5-2.1,17.8-4.4c6.4-2.3,12.3-5.2,17.8-8.7
	C454.1,215.6,454.5,215.4,454.9,215.2z M569.1,266.1c-2.7-0.2-5-0.3-7.1-0.3c-6,0-11.7,0.8-17.1,2.5c-5.4,1.6-10.8,4.5-16.1,8.7
	c-3.7,2.9-6.3,6.6-7.8,10.9c-1.5,4.3-1.8,8.2-0.9,11.6c0.5,1.9,1.3,3.5,2.4,4.7c1.1,1.1,2.3,1.8,3.8,2c0.4,0.1,1,0.1,1.5,0.1
	c0.5,0,1.1,0,1.7-0.1c0.8-0.1,2.4-0.5,5.3-1.9c2.4-1.1,4.9-2.8,7.6-4.9c2.7-2.2,5.9-5.5,9.8-9.9c3.8-4.4,7.9-9.8,12-15.8
	C565.8,271.2,567.4,268.7,569.1,266.1z M606.9,265.7c-0.2-1-0.6-1.7-1.1-2c-0.2,0-0.4-0.1-0.6-0.1c-1.4,0-3.3,1.1-5.4,3.1
	c-2.4,2.3-4.3,4.4-5.6,6.2c-0.6,0.8-1.1,1.5-1.4,2c0.5-0.2,1.1-0.6,1.8-1c1-0.6,2.1-1.4,3.3-2.2l0.5-0.4
	C602.6,268.1,605.2,266.5,606.9,265.7z M694.4,264.8c-0.1-0.3-0.2-0.7-0.2-1c-0.4,0-1,0.2-1.8,0.4c-1.8,0.6-3.6,1.5-5.4,2.7
	c-1.3,0.8-2.3,1.7-3.2,2.6c-0.4,0.4-0.7,0.7-0.9,1c0.2,0,0.5-0.1,0.8-0.2c0.6-0.1,1.3-0.3,2.1-0.6
	C687.8,269,690.7,267.4,694.4,264.8z M689.6,285.9c-7.9,5.1-14.9,10.4-20.7,16.1c-5.7,5.5-9.9,10.8-12.5,15.6
	c-2.5,4.6-3.7,8.2-3.6,10.8c0.1,1.7,0.6,1.8,0.7,1.8c0.2,0,0.4,0.1,0.5,0.1c0.5,0,1.5-0.2,3-0.9c1.8-0.9,3.9-2.5,6.2-4.6
	c2.4-2.2,5.1-5.2,8.1-9.1c3-3.9,6.1-8.5,9.1-13.6C683.7,296.6,686.7,291.2,689.6,285.9z M725.8,291.7c-4.4,3.6-8.5,7.4-12.2,11.3
	c-3.1,3.2-5.9,6.5-8.3,9.6c-2.4,3.2-4.2,6-5.5,8.3c-1.3,2.3-2.2,4.4-2.8,6.1c-0.3,0.9-0.5,1.6-0.6,2.1c0.5-0.3,1.3-0.9,2.5-1.9
	c1.5-1.3,3.2-3,5.1-5c1.9-2.1,4.3-5.1,7.2-8.9c2.9-3.8,6-8.3,9.3-13.3C722.4,297.3,724.1,294.5,725.8,291.7z M841.7,293.7
	c-9.6,6.7-17.1,12.7-22.2,17.9c-4.4,4.4-7.6,8.5-9.5,12.2c-2.4,4.5-2.1,6.3-1.9,6.9c0,0,0,0,0,0c0.1,0,0.2,0,0.3,0
	c1.1,0,3.7-0.7,8.9-5.1c5.5-4.8,11.5-12,17.9-21.5C837.2,301.1,839.4,297.6,841.7,293.7z"/>
</svg>
